{
  "source": "C:\\Users\\Peter\\Desktop\\stuff\\MIUN\\quantitative_research\\video_compression\\videos\\BVI-HD\\BVI-HD_CDVL_videos\\ORIG\\BubblesPitcher_1920x1080_60fps.mp4",
  "output": "C:\\Users\\Peter\\Desktop\\stuff\\MIUN\\quantitative_research\\video_compression\\compressed_videos\\BVI-HD\\h264\\4\\BubblesPitcher_1920x1080_60fps_h264.mp4",
  "codec": "h264",
  "ok": "Input #0, mov,mp4,m4a,3gp,3g2,mj2, from 'C:\\Users\\Peter\\Desktop\\stuff\\MIUN\\quantitative_research\\video_compression\\videos\\BVI-HD\\BVI-HD_CDVL_videos\\ORIG\\BubblesPitcher_1920x1080_60fps.mp4':\n  Metadata:\n    major_brand     : isom\n    minor_version   : 512\n    compatible_brands: isomiso2avc1mp41\n    encoder         : Lavf54.28.101\n  Duration: 00:00:05.00, start: 0.000000, bitrate: 188849 kb/s\n  Stream #0:0[0x1](und): Video: h264 (High 4:4:4 Predictive) (avc1 / 0x31637661), yuv420p(progressive), 1920x1080, 188844 kb/s, 60 fps, 60 tbr, 60 tbn (default)\n    Metadata:\n      handler_name    : VideoHandler\n      vendor_id       : [0][0][0][0]\n[out#0/mp4 @ 0000025e22b41440] Codec AVOption b:a (set bitrate (in bits/s)) has not been used for any stream. The most likely reason is either wrong type (e.g. a video option with no video streams) or that it is a private option of some decoder which was not actually used for any stream.\nStream mapping:\n  Stream #0:0 -> #0:0 (h264 (native) -> h264 (libx264))\nPress [q] to stop, [?] for help\n[libx264 @ 0000025e23272240] using cpu capabilities: MMX2 SSE2Fast SSSE3 SSE4.2 AVX FMA3 BMI2 AVX2\n[libx264 @ 0000025e23272240] profile High, level 5.0, 4:2:0, 8-bit\n[libx264 @ 0000025e23272240] 264 - core 165 r3222 b35605a - H.264/MPEG-4 AVC codec - Copyleft 2003-2025 - http://www.videolan.org/x264.html - options: cabac=1 ref=5 deblock=1:0:0 analyse=0x3:0x113 me=hex subme=8 psy=1 psy_rd=1.00:0.00 mixed_ref=1 me_range=16 chroma_me=1 trellis=2 8x8dct=1 cqm=0 deadzone=21,11 fast_pskip=1 chroma_qp_offset=-2 threads=18 lookahead_threads=3 sliced_threads=0 nr=0 decimate=1 interlaced=0 bluray_compat=0 constrained_intra=0 bframes=3 b_pyramid=2 b_adapt=1 b_bias=0 direct=3 weightb=1 open_gop=0 weightp=2 keyint=250 keyint_min=25 scenecut=40 intra_refresh=0 rc_lookahead=50 rc=cbr mbtree=1 bitrate=4000 ratetol=1.0 qcomp=0.60 qpmin=0 qpmax=69 qpstep=4 vbv_maxrate=4000 vbv_bufsize=4000 nal_hrd=none filler=0 ip_ratio=1.40 aq=1:1.00\nOutput #0, mp4, to 'C:\\Users\\Peter\\Desktop\\stuff\\MIUN\\quantitative_research\\video_compression\\compressed_videos\\BVI-HD\\h264\\4\\BubblesPitcher_1920x1080_60fps_h264.mp4':\n  Metadata:\n    major_brand     : isom\n    minor_version   : 512\n    compatible_brands: isomiso2avc1mp41\n    encoder         : Lavf62.3.100\n  Stream #0:0(und): Video: h264 (avc1 / 0x31637661), yuv420p(tv, progressive), 1920x1080, q=2-31, 4000 kb/s, 60 fps, 15360 tbn (default)\n    Metadata:\n      encoder         : Lavc62.11.100 libx264\n      handler_name    : VideoHandler\n      vendor_id       : [0][0][0][0]\n    Side data:\n      cpb: bitrate max/min/avg: 4000000/0/4000000 buffer size: 4000000 vbv_delay: N/A\nframe=    0 fps=0.0 q=0.0 size=       0KiB time=N/A bitrate=N/A speed=N/A elapsed=0:00:00.51    \nframe=    0 fps=0.0 q=0.0 size=       0KiB time=N/A bitrate=N/A speed=N/A elapsed=0:00:01.08    \nframe=    0 fps=0.0 q=0.0 size=       0KiB time=N/A bitrate=N/A speed=N/A elapsed=0:00:01.76    \nframe=   21 fps=8.4 q=30.0 size=       0KiB time=00:00:00.23 bitrate=   1.6kbits/s speed=0.0928x elapsed=0:00:02.51    \nframe=   34 fps= 11 q=32.0 size=       0KiB time=00:00:00.51 bitrate=   0.7kbits/s speed=0.164x elapsed=0:00:03.15    \nframe=   60 fps= 16 q=33.0 size=     256KiB time=00:00:00.90 bitrate=2330.6kbits/s speed=0.24x elapsed=0:00:03.74    \nframe=   80 fps= 18 q=33.0 size=     512KiB time=00:00:01.30 bitrate=3226.7kbits/s speed=0.297x elapsed=0:00:04.38    \nframe=  104 fps= 21 q=35.0 size=     768KiB time=00:00:01.63 bitrate=3852.1kbits/s speed=0.333x elapsed=0:00:04.91    \nframe=  109 fps= 20 q=36.0 size=     768KiB time=00:00:01.76 bitrate=3561.4kbits/s speed=0.318x elapsed=0:00:05.56    \nframe=  110 fps= 18 q=36.0 size=     768KiB time=00:00:01.80 bitrate=3495.5kbits/s speed=0.289x elapsed=0:00:06.23    \nframe=  117 fps= 17 q=37.0 size=     768KiB time=00:00:01.88 bitrate=3340.8kbits/s speed=0.274x elapsed=0:00:06.87    \nframe=  128 fps= 17 q=37.0 size=    1024KiB time=00:00:02.10 bitrate=3994.8kbits/s speed=0.278x elapsed=0:00:07.54    \nframe=  140 fps= 17 q=38.0 size=    1024KiB time=00:00:02.26 bitrate=3701.0kbits/s speed=0.279x elapsed=0:00:08.11    \nframe=  148 fps= 17 q=40.0 size=    1024KiB time=00:00:02.43 bitrate=3447.5kbits/s speed=0.279x elapsed=0:00:08.71    \nframe=  158 fps= 17 q=41.0 size=    1280KiB time=00:00:02.56 bitrate=4085.5kbits/s speed=0.278x elapsed=0:00:09.24    \nframe=  167 fps= 17 q=41.0 size=    1280KiB time=00:00:02.70 bitrate=3883.8kbits/s speed=0.273x elapsed=0:00:09.88    \nframe=  176 fps= 17 q=42.0 size=    1280KiB time=00:00:02.85 bitrate=3679.3kbits/s speed=0.268x elapsed=0:00:10.64    \nframe=  184 fps= 16 q=42.0 size=    1536KiB time=00:00:03.00 bitrate=4194.4kbits/s speed=0.264x elapsed=0:00:11.36    \nframe=  192 fps= 16 q=43.0 size=    1536KiB time=00:00:03.15 bitrate=3994.7kbits/s speed=0.264x elapsed=0:00:11.94    \nframe=  201 fps= 16 q=43.0 size=    1792KiB time=00:00:03.30 bitrate=4448.6kbits/s speed=0.264x elapsed=0:00:12.50    \nframe=  211 fps= 16 q=43.0 size=    1792KiB time=00:00:03.48 bitrate=4214.5kbits/s speed=0.266x elapsed=0:00:13.07    \nframe=  220 fps= 16 q=44.0 size=    1792KiB time=00:00:03.61 bitrate=4059.1kbits/s speed=0.265x elapsed=0:00:13.66    \nframe=  231 fps= 16 q=44.0 size=    2048KiB time=00:00:03.78 bitrate=4434.6kbits/s speed=0.263x elapsed=0:00:14.37    \nframe=  252 fps= 17 q=44.0 size=    2048KiB time=00:00:04.11 bitrate=4075.5kbits/s speed=0.273x elapsed=0:00:15.08    \nframe=  277 fps= 18 q=47.0 size=    2304KiB time=00:00:04.58 bitrate=4118.1kbits/s speed=0.293x elapsed=0:00:15.63    \n[mp4 @ 0000025e22b41540] Starting second pass: moving the moov atom to the beginning of the file\n[out#0/mp4 @ 0000025e22b41440] video:2548KiB audio:0KiB subtitle:0KiB other streams:0KiB global headers:0KiB muxing overhead: 0.117993%\nframe=  300 fps= 19 q=-1.0 Lsize=    2551KiB time=00:00:04.96 bitrate=4208.1kbits/s speed=0.308x elapsed=0:00:16.11    \n[libx264 @ 0000025e23272240] frame I:2     Avg QP:22.95  size: 22160\n[libx264 @ 0000025e23272240] frame P:207   Avg QP:35.33  size:  9469\n[libx264 @ 0000025e23272240] frame B:91    Avg QP:23.81  size:  6640\n[libx264 @ 0000025e23272240] consecutive B-frames: 59.3%  0.0%  2.0% 38.7%\n[libx264 @ 0000025e23272240] mb I  I16..4: 45.3% 54.1%  0.6%\n[libx264 @ 0000025e23272240] mb P  I16..4:  9.9% 12.4%  0.1%  P16..4: 19.0%  1.5%  1.1%  0.0%  0.0%    skip:56.0%\n[libx264 @ 0000025e23272240] mb B  I16..4:  1.9%  1.9%  0.0%  B16..8: 23.7%  1.9%  0.2%  direct: 6.3%  skip:64.2%  L0:48.6% L1:49.9% BI: 1.6%\n[libx264 @ 0000025e23272240] 8x8 transform intra:55.0% inter:93.2%\n[libx264 @ 0000025e23272240] direct mvs  spatial:89.0% temporal:11.0%\n[libx264 @ 0000025e23272240] coded y,uvDC,uvAC intra: 8.3% 33.0% 2.7% inter: 3.7% 11.6% 0.0%\n[libx264 @ 0000025e23272240] i16 v,h,dc,p: 46% 33% 10% 11%\n[libx264 @ 0000025e23272240] i8 v,h,dc,ddl,ddr,vr,hd,vl,hu:  7%  6% 70%  3%  3%  4%  3%  3%  2%\n[libx264 @ 0000025e23272240] i4 v,h,dc,ddl,ddr,vr,hd,vl,hu: 11%  5% 31%  8% 12% 11%  8%  7%  6%\n[libx264 @ 0000025e23272240] i8c dc,h,v,p: 67% 20% 12%  1%\n[libx264 @ 0000025e23272240] Weighted P-Frames: Y:0.5% UV:0.5%\n[libx264 @ 0000025e23272240] ref P L0: 45.7%  5.6% 19.1% 10.9% 10.1%  8.6%\n[libx264 @ 0000025e23272240] ref B L0: 70.9% 18.9%  8.0%  2.2%\n[libx264 @ 0000025e23272240] ref B L1: 91.8%  8.2%\n[libx264 @ 0000025e23272240] kb/s:4173.94\n",
  "seconds": 16.41315484046936,
  "probe_out": {}
}